<svg xmlns="http://www.w3.org/2000/svg" width="1536" height="672" viewBox="0 0 1536 672">
<path d="M 1478,634 L 1478,636 L 1479,637 L 1479,639 L 1480,639 L 1480,637 L 1481,636 L 1481,634 Z" fill="#E5E7EB"/>
<path d="M 1496,613 L 1496,618 L 1498,618 L 1499,617 L 1500,617 L 1501,616 L 1503,616 L 1503,615 L 1501,615 L 1500,614 L 1498,614 L 1497,613 Z" fill="#E5E7EB"/>
<path d="M 1461,613 L 1460,614 L 1459,614 L 1458,615 L 1456,615 L 1456,616 L 1458,616 L 1459,617 L 1460,617 L 1461,618 L 1463,618 L 1463,613 Z" fill="#E5E7EB"/>
<path d="M 1485,603 L 1485,611 L 1484,612 L 1475,612 L 1474,611 L 1474,610 L 1473,609 L 1473,604 L 1472,605 L 1472,606 L 1470,608 L 1469,608 L 1466,611 L 1474,611 L 1475,612 L 1475,618 L 1474,619 L 1474,622 L 1473,623 L 1470,623 L 1470,624 L 1471,624 L 1472,625 L 1472,626 L 1473,627 L 1474,626 L 1474,624 L 1473,623 L 1474,622 L 1484,622 L 1485,623 L 1485,628 L 1487,626 L 1487,625 L 1488,624 L 1489,624 L 1489,623 L 1485,623 L 1484,622 L 1484,612 L 1485,611 L 1494,611 L 1493,611 L 1490,608 L 1489,608 L 1487,606 L 1487,605 Z" fill="#E5E7EB"/>
<path d="M 1479,592 L 1479,594 L 1478,595 L 1478,597 L 1477,598 L 1477,599 L 1476,600 L 1483,600 L 1482,599 L 1482,597 L 1481,596 L 1481,595 L 1480,594 L 1480,592 Z" fill="#E5E7EB"/>
<path d="M 1395,577 L 1394,578 L 1389,578 L 1388,579 L 1370,579 L 1369,580 L 1356,580 L 1355,581 L 1340,581 L 1339,582 L 1338,582 L 1337,581 L 1336,581 L 1335,582 L 1334,582 L 1333,583 L 1332,583 L 1331,582 L 1330,582 L 1329,583 L 1313,583 L 1312,584 L 1293,584 L 1292,585 L 1283,585 L 1282,586 L 1280,586 L 1279,585 L 1277,585 L 1276,586 L 1267,586 L 1266,587 L 1246,587 L 1245,588 L 1225,588 L 1224,589 L 1214,589 L 1213,590 L 1192,590 L 1191,591 L 1180,591 L 1179,592 L 1178,591 L 1177,592 L 1160,592 L 1159,593 L 1137,593 L 1136,594 L 1115,594 L 1114,595 L 1093,595 L 1092,596 L 1071,596 L 1070,597 L 1047,597 L 1046,598 L 1038,598 L 1037,597 L 1034,597 L 1033,598 L 1027,598 L 1026,599 L 995,599 L 994,600 L 983,600 L 982,601 L 981,600 L 967,600 L 966,601 L 949,601 L 948,602 L 931,602 L 930,601 L 929,602 L 906,602 L 905,603 L 890,603 L 889,602 L 887,602 L 886,603 L 883,603 L 882,602 L 880,602 L 879,603 L 876,603 L 875,602 L 874,602 L 872,604 L 862,604 L 861,603 L 855,603 L 854,604 L 853,603 L 852,603 L 851,604 L 807,604 L 806,605 L 796,605 L 795,604 L 786,604 L 785,605 L 774,605 L 772,603 L 771,604 L 764,604 L 763,605 L 752,605 L 751,604 L 743,604 L 742,605 L 719,605 L 718,604 L 710,604 L 709,605 L 698,605 L 697,604 L 687,604 L 686,605 L 676,605 L 675,604 L 664,604 L 663,605 L 655,605 L 654,604 L 610,604 L 609,603 L 595,603 L 594,602 L 593,603 L 577,603 L 576,602 L 567,602 L 566,603 L 555,603 L 554,602 L 547,602 L 546,601 L 545,602 L 533,602 L 532,601 L 500,601 L 499,600 L 478,600 L 477,599 L 456,599 L 455,598 L 434,598 L 433,597 L 424,597 L 423,598 L 418,598 L 417,597 L 416,597 L 415,598 L 414,597 L 404,597 L 403,596 L 402,597 L 393,597 L 392,596 L 370,596 L 369,595 L 350,595 L 349,594 L 344,594 L 343,593 L 337,593 L 336,594 L 331,594 L 330,593 L 323,593 L 322,592 L 318,592 L 317,591 L 316,592 L 305,592 L 304,591 L 290,591 L 289,590 L 271,590 L 270,589 L 251,589 L 250,588 L 229,588 L 228,587 L 220,587 L 219,586 L 218,587 L 212,587 L 211,586 L 205,586 L 204,585 L 185,585 L 184,584 L 164,584 L 163,583 L 153,583 L 152,582 L 132,582 L 131,581 L 125,581 L 124,580 L 102,580 L 101,579 L 92,579 L 92,591 L 91,592 L 91,601 L 90,602 L 90,611 L 92,611 L 93,612 L 99,612 L 100,613 L 118,613 L 119,614 L 126,614 L 127,615 L 128,614 L 135,614 L 136,615 L 144,615 L 145,616 L 164,616 L 165,617 L 184,617 L 185,618 L 189,618 L 190,619 L 195,619 L 196,618 L 197,618 L 198,619 L 207,619 L 208,620 L 227,620 L 228,621 L 241,621 L 242,622 L 257,622 L 258,623 L 266,623 L 267,624 L 283,624 L 284,625 L 305,625 L 306,626 L 326,626 L 327,627 L 347,627 L 348,628 L 369,628 L 370,629 L 389,629 L 390,630 L 411,630 L 412,631 L 434,631 L 435,632 L 456,632 L 457,633 L 486,633 L 487,634 L 503,634 L 504,635 L 507,635 L 508,634 L 509,634 L 510,635 L 511,634 L 518,634 L 519,635 L 544,635 L 545,636 L 587,636 L 588,637 L 597,637 L 598,636 L 606,636 L 607,637 L 608,636 L 609,637 L 631,637 L 632,638 L 633,637 L 634,638 L 641,638 L 642,637 L 650,637 L 651,638 L 652,637 L 653,637 L 654,638 L 707,638 L 708,639 L 709,638 L 728,638 L 729,639 L 730,638 L 745,638 L 746,639 L 747,638 L 750,638 L 751,639 L 752,638 L 763,638 L 764,639 L 765,638 L 768,638 L 769,639 L 770,638 L 772,638 L 773,639 L 774,638 L 794,638 L 795,639 L 796,638 L 818,638 L 819,637 L 820,638 L 821,637 L 826,637 L 827,638 L 828,637 L 829,638 L 839,638 L 840,637 L 867,637 L 868,636 L 869,636 L 870,637 L 871,637 L 872,636 L 873,637 L 879,637 L 880,636 L 881,636 L 882,637 L 883,636 L 916,636 L 917,635 L 928,635 L 929,636 L 930,635 L 931,636 L 934,636 L 935,635 L 961,635 L 962,634 L 999,634 L 1000,633 L 1025,633 L 1026,632 L 1047,632 L 1048,631 L 1070,631 L 1071,630 L 1092,630 L 1093,629 L 1102,629 L 1103,628 L 1104,629 L 1108,629 L 1109,628 L 1118,628 L 1119,627 L 1120,628 L 1121,627 L 1139,627 L 1140,626 L 1161,626 L 1162,625 L 1181,625 L 1182,624 L 1202,624 L 1203,623 L 1204,624 L 1205,624 L 1206,623 L 1216,623 L 1217,622 L 1238,622 L 1239,621 L 1255,621 L 1256,620 L 1278,620 L 1279,619 L 1286,619 L 1287,618 L 1288,619 L 1289,618 L 1290,618 L 1291,619 L 1295,619 L 1296,618 L 1297,619 L 1298,618 L 1304,618 L 1305,617 L 1322,617 L 1323,616 L 1337,616 L 1338,615 L 1355,615 L 1356,614 L 1374,614 L 1375,613 L 1383,613 L 1384,612 L 1388,612 L 1389,613 L 1390,613 L 1391,612 L 1398,612 L 1399,611 L 1401,611 L 1401,603 L 1400,602 L 1400,591 L 1399,590 L 1400,589 L 1400,583 L 1399,582 L 1399,579 L 1397,577 Z" fill="#E5E7EB"/>
<path d="M 1519,174 L 1517,176 L 1517,179 L 1518,180 L 1518,184 L 1519,184 L 1520,183 L 1526,183 L 1526,176 L 1525,175 L 1520,175 Z" fill="#E5E7EB"/>
<path d="M 743,112 L 742,113 L 719,113 L 718,114 L 710,114 L 709,115 L 708,115 L 707,114 L 706,115 L 701,115 L 700,116 L 699,116 L 698,117 L 695,117 L 694,118 L 691,118 L 690,119 L 686,119 L 685,120 L 683,120 L 682,121 L 681,121 L 680,122 L 679,122 L 678,123 L 676,123 L 675,124 L 671,124 L 670,125 L 669,125 L 668,126 L 667,126 L 666,127 L 665,127 L 663,129 L 662,129 L 661,130 L 660,130 L 659,131 L 657,131 L 656,132 L 655,132 L 654,133 L 653,133 L 651,135 L 650,135 L 648,137 L 647,137 L 644,140 L 643,140 L 641,142 L 640,142 L 633,149 L 632,149 L 631,150 L 630,150 L 630,151 L 628,153 L 627,153 L 627,154 L 623,158 L 623,159 L 619,163 L 619,164 L 616,167 L 616,168 L 614,170 L 614,171 L 612,173 L 612,174 L 610,176 L 610,177 L 609,178 L 609,180 L 608,181 L 608,182 L 607,183 L 607,184 L 605,186 L 605,187 L 603,189 L 600,189 L 599,190 L 596,190 L 595,191 L 589,191 L 588,192 L 580,192 L 579,193 L 577,193 L 576,194 L 571,194 L 570,195 L 563,195 L 562,196 L 557,196 L 556,197 L 555,197 L 554,198 L 547,198 L 546,199 L 544,199 L 543,200 L 540,200 L 539,201 L 534,201 L 533,202 L 529,202 L 528,203 L 524,203 L 523,204 L 522,204 L 521,205 L 517,205 L 516,206 L 511,206 L 510,207 L 507,207 L 506,208 L 505,208 L 504,209 L 499,209 L 498,210 L 495,210 L 494,211 L 493,211 L 492,212 L 489,212 L 488,213 L 486,213 L 485,214 L 483,214 L 482,215 L 479,215 L 478,216 L 474,216 L 473,217 L 471,217 L 470,218 L 468,218 L 467,219 L 464,219 L 463,220 L 460,220 L 459,221 L 458,221 L 457,222 L 456,222 L 455,223 L 452,223 L 451,224 L 449,224 L 448,225 L 445,225 L 444,226 L 442,226 L 441,227 L 438,227 L 437,228 L 436,228 L 435,229 L 434,229 L 433,230 L 430,230 L 429,231 L 425,231 L 423,233 L 421,233 L 420,234 L 419,234 L 418,235 L 416,235 L 415,236 L 413,236 L 412,237 L 411,237 L 410,238 L 407,238 L 406,239 L 405,239 L 404,240 L 403,240 L 402,241 L 400,241 L 399,242 L 397,242 L 396,243 L 395,243 L 394,244 L 392,244 L 390,246 L 389,246 L 388,247 L 386,247 L 385,248 L 383,248 L 382,249 L 380,249 L 379,250 L 378,250 L 377,251 L 375,251 L 373,253 L 371,253 L 370,254 L 368,254 L 367,255 L 366,255 L 365,256 L 363,256 L 362,257 L 361,257 L 360,258 L 359,258 L 357,260 L 356,260 L 355,261 L 353,261 L 352,262 L 351,262 L 350,263 L 348,263 L 346,265 L 345,265 L 344,266 L 342,266 L 341,267 L 340,267 L 339,268 L 338,268 L 337,269 L 335,269 L 334,270 L 333,270 L 332,271 L 331,271 L 329,273 L 328,273 L 326,275 L 324,275 L 323,276 L 322,276 L 321,277 L 320,277 L 318,279 L 316,279 L 315,280 L 314,280 L 313,281 L 312,281 L 311,282 L 310,282 L 308,284 L 307,284 L 305,286 L 303,286 L 302,287 L 301,287 L 300,288 L 299,288 L 297,290 L 296,290 L 295,291 L 294,291 L 292,293 L 291,293 L 289,295 L 287,295 L 286,296 L 285,296 L 282,299 L 281,299 L 280,300 L 279,300 L 277,302 L 276,302 L 274,304 L 272,304 L 269,307 L 268,307 L 266,309 L 265,309 L 263,311 L 261,311 L 259,313 L 258,313 L 256,315 L 255,315 L 253,317 L 252,317 L 250,319 L 248,319 L 245,322 L 244,322 L 242,324 L 241,324 L 240,325 L 240,326 L 239,327 L 238,327 L 237,328 L 236,328 L 235,329 L 234,329 L 231,332 L 230,332 L 225,337 L 224,337 L 222,339 L 221,339 L 220,340 L 219,340 L 219,341 L 216,344 L 215,344 L 212,347 L 211,347 L 208,350 L 207,350 L 200,357 L 199,357 L 196,360 L 195,360 L 195,361 L 193,363 L 192,363 L 187,368 L 186,368 L 184,370 L 183,370 L 183,371 L 176,378 L 175,378 L 158,395 L 158,396 L 154,400 L 153,400 L 152,401 L 152,402 L 147,407 L 147,408 L 140,415 L 140,416 L 133,423 L 133,424 L 130,427 L 130,428 L 129,429 L 128,429 L 128,430 L 125,433 L 125,434 L 122,437 L 122,438 L 121,439 L 121,440 L 120,441 L 119,441 L 118,442 L 118,443 L 116,445 L 116,446 L 115,447 L 115,448 L 113,450 L 113,451 L 109,455 L 109,456 L 108,457 L 108,458 L 107,459 L 107,460 L 105,462 L 105,463 L 104,464 L 104,465 L 102,467 L 102,468 L 100,470 L 100,471 L 99,472 L 99,473 L 98,474 L 98,475 L 97,476 L 97,477 L 96,478 L 96,479 L 94,481 L 94,482 L 93,483 L 93,484 L 91,486 L 91,487 L 90,488 L 90,489 L 89,490 L 89,492 L 88,493 L 88,494 L 86,496 L 86,497 L 85,498 L 85,500 L 84,501 L 84,502 L 83,503 L 83,505 L 82,506 L 82,507 L 81,508 L 81,509 L 80,510 L 80,512 L 78,514 L 78,515 L 77,516 L 77,519 L 76,520 L 76,522 L 74,524 L 74,525 L 73,526 L 73,528 L 72,529 L 72,530 L 71,531 L 71,533 L 70,534 L 70,538 L 69,539 L 69,541 L 68,542 L 68,544 L 67,545 L 67,546 L 66,547 L 66,570 L 71,570 L 72,571 L 92,571 L 93,572 L 100,572 L 101,573 L 102,572 L 103,573 L 130,573 L 131,574 L 138,574 L 139,575 L 140,574 L 152,574 L 153,575 L 163,575 L 164,576 L 170,576 L 171,577 L 173,577 L 174,576 L 184,576 L 185,577 L 206,577 L 207,578 L 220,578 L 221,579 L 243,579 L 244,580 L 245,580 L 246,579 L 247,580 L 250,580 L 251,579 L 255,579 L 256,580 L 264,580 L 265,581 L 266,581 L 267,580 L 268,580 L 269,581 L 272,581 L 273,580 L 274,580 L 275,581 L 290,581 L 291,582 L 292,581 L 293,582 L 294,581 L 301,581 L 302,582 L 325,582 L 326,583 L 349,583 L 350,584 L 358,584 L 359,583 L 362,583 L 363,584 L 365,584 L 366,583 L 367,584 L 391,584 L 392,585 L 413,585 L 414,586 L 434,586 L 435,587 L 440,587 L 441,588 L 442,588 L 443,587 L 444,588 L 446,586 L 447,587 L 456,587 L 457,588 L 466,588 L 467,587 L 477,587 L 478,588 L 499,588 L 500,589 L 501,589 L 502,588 L 504,588 L 505,589 L 557,589 L 558,590 L 563,590 L 564,589 L 576,589 L 577,590 L 631,590 L 632,591 L 645,591 L 646,590 L 647,591 L 719,591 L 720,592 L 721,591 L 722,591 L 723,592 L 726,592 L 727,591 L 728,592 L 729,592 L 730,591 L 775,591 L 776,592 L 777,591 L 778,592 L 779,591 L 809,591 L 810,590 L 811,591 L 829,591 L 830,590 L 831,591 L 832,590 L 839,590 L 840,591 L 841,591 L 842,590 L 843,591 L 849,591 L 850,590 L 890,590 L 891,589 L 892,589 L 893,590 L 894,589 L 895,589 L 896,590 L 902,590 L 903,589 L 952,589 L 953,588 L 958,588 L 959,589 L 960,588 L 981,588 L 982,587 L 983,587 L 984,588 L 993,588 L 994,587 L 1025,587 L 1026,586 L 1047,586 L 1048,585 L 1072,585 L 1073,584 L 1082,584 L 1083,585 L 1084,584 L 1102,584 L 1103,583 L 1104,584 L 1114,584 L 1115,583 L 1136,583 L 1137,582 L 1164,582 L 1165,581 L 1166,582 L 1167,582 L 1168,581 L 1169,581 L 1170,582 L 1175,582 L 1176,581 L 1202,581 L 1203,580 L 1223,580 L 1224,579 L 1225,579 L 1226,580 L 1230,580 L 1231,579 L 1232,580 L 1233,579 L 1244,579 L 1245,578 L 1246,578 L 1247,579 L 1248,579 L 1249,578 L 1268,578 L 1269,577 L 1290,577 L 1291,576 L 1311,576 L 1312,575 L 1331,575 L 1332,574 L 1351,574 L 1352,573 L 1363,573 L 1364,572 L 1366,572 L 1367,573 L 1370,573 L 1371,572 L 1372,573 L 1373,572 L 1378,572 L 1379,571 L 1398,571 L 1399,570 L 1418,570 L 1419,569 L 1421,569 L 1422,568 L 1424,568 L 1424,556 L 1423,555 L 1423,542 L 1422,541 L 1422,539 L 1421,538 L 1421,537 L 1420,536 L 1420,533 L 1419,532 L 1419,530 L 1418,529 L 1418,527 L 1417,526 L 1417,525 L 1416,524 L 1416,523 L 1415,522 L 1415,520 L 1414,519 L 1414,518 L 1413,517 L 1413,515 L 1412,514 L 1412,512 L 1411,511 L 1411,510 L 1410,509 L 1410,507 L 1408,505 L 1408,503 L 1407,502 L 1407,500 L 1406,499 L 1406,498 L 1405,497 L 1405,496 L 1404,495 L 1404,494 L 1403,493 L 1403,492 L 1401,490 L 1401,489 L 1400,488 L 1400,487 L 1399,486 L 1399,485 L 1398,484 L 1398,483 L 1397,482 L 1397,481 L 1395,479 L 1395,478 L 1394,477 L 1394,476 L 1393,475 L 1393,474 L 1391,472 L 1391,471 L 1390,470 L 1390,469 L 1388,467 L 1388,466 L 1386,464 L 1386,463 L 1385,462 L 1385,461 L 1383,459 L 1383,457 L 1381,455 L 1381,454 L 1379,452 L 1379,451 L 1375,447 L 1375,446 L 1374,445 L 1374,444 L 1370,440 L 1370,439 L 1366,435 L 1366,434 L 1364,432 L 1364,431 L 1356,423 L 1356,422 L 1354,420 L 1354,419 L 1353,419 L 1352,418 L 1352,417 L 1344,409 L 1344,408 L 1342,406 L 1341,406 L 1334,399 L 1334,398 L 1332,396 L 1332,395 L 1331,395 L 1330,394 L 1329,394 L 1328,393 L 1328,392 L 1327,392 L 1326,391 L 1326,390 L 1325,390 L 1322,387 L 1322,386 L 1320,384 L 1319,384 L 1315,380 L 1314,380 L 1311,377 L 1311,376 L 1310,376 L 1308,374 L 1308,373 L 1307,373 L 1306,372 L 1305,372 L 1295,362 L 1294,362 L 1292,360 L 1291,360 L 1287,356 L 1286,356 L 1282,352 L 1281,352 L 1277,348 L 1276,348 L 1274,346 L 1273,346 L 1268,341 L 1268,340 L 1266,340 L 1265,339 L 1264,339 L 1263,338 L 1262,338 L 1258,334 L 1257,334 L 1256,333 L 1256,332 L 1255,332 L 1253,330 L 1252,330 L 1250,328 L 1248,328 L 1243,323 L 1242,323 L 1241,322 L 1240,322 L 1239,321 L 1239,320 L 1238,320 L 1237,319 L 1236,319 L 1235,318 L 1234,318 L 1232,316 L 1231,316 L 1230,315 L 1229,315 L 1227,313 L 1226,313 L 1223,310 L 1222,310 L 1220,308 L 1219,308 L 1218,307 L 1217,307 L 1216,306 L 1215,306 L 1213,304 L 1212,304 L 1210,302 L 1209,302 L 1208,301 L 1207,301 L 1206,300 L 1205,300 L 1204,299 L 1203,299 L 1202,298 L 1201,298 L 1200,297 L 1199,297 L 1198,296 L 1197,296 L 1195,294 L 1194,294 L 1193,293 L 1192,293 L 1191,292 L 1189,292 L 1187,290 L 1186,290 L 1185,289 L 1184,289 L 1183,288 L 1182,288 L 1179,285 L 1178,285 L 1177,284 L 1175,284 L 1174,283 L 1173,283 L 1172,282 L 1171,282 L 1169,280 L 1168,280 L 1166,278 L 1165,278 L 1164,277 L 1162,277 L 1161,276 L 1160,276 L 1159,275 L 1158,275 L 1157,274 L 1156,274 L 1154,272 L 1153,272 L 1152,271 L 1150,271 L 1149,270 L 1147,270 L 1146,269 L 1145,269 L 1144,268 L 1143,268 L 1142,267 L 1141,267 L 1140,266 L 1139,266 L 1138,265 L 1137,265 L 1135,263 L 1133,263 L 1132,262 L 1130,262 L 1128,260 L 1126,260 L 1125,259 L 1125,258 L 1123,258 L 1122,257 L 1121,257 L 1120,256 L 1118,256 L 1117,255 L 1116,255 L 1115,254 L 1113,254 L 1111,252 L 1109,252 L 1108,251 L 1107,251 L 1106,250 L 1104,250 L 1102,248 L 1100,248 L 1099,247 L 1098,247 L 1097,246 L 1093,246 L 1092,245 L 1091,245 L 1090,244 L 1088,244 L 1087,243 L 1086,243 L 1085,242 L 1084,242 L 1083,241 L 1081,241 L 1080,240 L 1079,240 L 1078,239 L 1077,239 L 1076,238 L 1074,238 L 1073,237 L 1072,237 L 1071,236 L 1067,236 L 1066,235 L 1064,235 L 1063,234 L 1061,234 L 1060,233 L 1059,233 L 1058,232 L 1056,232 L 1055,231 L 1053,231 L 1052,230 L 1049,230 L 1048,229 L 1047,229 L 1046,228 L 1044,228 L 1043,227 L 1042,227 L 1041,226 L 1036,226 L 1035,225 L 1034,225 L 1033,224 L 1030,224 L 1029,223 L 1027,223 L 1026,222 L 1026,221 L 1023,221 L 1022,220 L 1021,220 L 1020,219 L 1016,219 L 1015,218 L 1013,218 L 1012,217 L 1010,217 L 1009,216 L 1004,216 L 1003,215 L 1000,215 L 999,214 L 998,214 L 997,213 L 994,213 L 993,212 L 991,212 L 990,211 L 988,211 L 987,210 L 983,210 L 982,209 L 979,209 L 978,208 L 976,208 L 975,207 L 971,207 L 970,206 L 966,206 L 965,205 L 962,205 L 961,204 L 960,204 L 959,203 L 955,203 L 954,202 L 952,202 L 951,201 L 950,202 L 949,202 L 948,201 L 944,201 L 943,200 L 940,200 L 939,199 L 934,199 L 933,198 L 929,198 L 928,197 L 923,197 L 922,196 L 918,196 L 917,195 L 915,195 L 914,194 L 910,194 L 909,193 L 902,193 L 901,192 L 895,192 L 894,191 L 890,191 L 889,190 L 880,190 L 879,189 L 874,189 L 873,188 L 872,188 L 871,187 L 865,187 L 864,186 L 862,186 L 860,184 L 860,182 L 859,181 L 859,180 L 858,179 L 858,177 L 856,175 L 856,174 L 855,173 L 855,172 L 854,171 L 854,170 L 852,168 L 852,167 L 851,166 L 851,165 L 848,162 L 848,161 L 847,161 L 846,160 L 846,159 L 838,151 L 838,150 L 837,150 L 831,144 L 830,144 L 829,143 L 829,142 L 828,142 L 827,141 L 826,141 L 825,140 L 824,140 L 821,137 L 820,137 L 818,135 L 817,135 L 816,134 L 815,134 L 813,132 L 811,132 L 809,130 L 808,130 L 807,129 L 806,129 L 804,127 L 803,127 L 802,126 L 801,126 L 800,125 L 798,125 L 797,124 L 795,124 L 794,123 L 792,123 L 791,122 L 789,122 L 788,121 L 787,121 L 786,120 L 784,120 L 783,119 L 780,119 L 779,118 L 775,118 L 774,117 L 772,117 L 771,116 L 768,116 L 767,115 L 759,115 L 758,114 L 752,114 L 751,113 L 746,113 L 745,112 Z" fill="#E5E7EB"/>
</svg>